<?xml version="1.0" encoding="utf-8"?>
<!-- Generator: Adobe Illustrator 23.0.1, SVG Export Plug-In . SVG Version: 6.00 Build 0)  -->
<svg version="1.1" id="Layer_1" xmlns="http://www.w3.org/2000/svg" xmlns:xlink="http://www.w3.org/1999/xlink"
 viewBox="110 500 1500 800" width="2500" height="2000"
 xml:space="preserve">
<style type="text/css">
	.st0{fill:#F8F8F8;}
	.st1{fill:#434345;}
</style>
 
 <rect x="0" class="st0" width="3000" height="3000"/>
<g>
	<path class="st1" d="M0,507.24v546.43c20.23,50.88,45.59,100.02,75.43,146.33h197.53C164.67,1098.29,89.86,963.51,74.13,802.47
		C50.01,555.56,205.39,285.31,469.19,260.1c159.32-15.25,333.69,85.47,349.51,255.78c9.58,102.26-55.2,214.41-164.75,224.42
		c-65.57,5.92-137.25-35.65-143.36-105.76c-3.71-41.77,22.89-87.52,67.5-91.31c26.46-2.19,55.44,14.57,57.82,42.91
		c1.44,16.7-9.25,35.06-27.23,36.57c-10.46,0.72-22.04-5.9-22.81-17.21c-0.65-6.51,3.56-13.82,10.75-14.42
		c4.13-0.16,8.5,2.42,8.85,6.87c0.15,2.57-1.4,5.26-4.14,5.5c-1.82,0.16-3.36-1.19-3.35-2.73c0-0.96,0.53-1.95,1.56-2.06
		c0.72-0.08,1.27,0.43,1.33,1.06c0.04,0.43-0.32,0.92-0.75,0.88c-0.27-0.03-0.45-0.17-0.5-0.36c-0.09-0.32,0.32-0.51,0.38-0.24
		c0.14-0.23-0.28-0.39-0.44-0.1c-0.1,0.17-0.07,0.4,0.11,0.61c0.27,0.33,0.87,0.24,1.15-0.09c0.4-0.49,0.37-1.24-0.2-1.7
		c-0.81-0.64-1.88-0.32-2.56,0.36c-1.09,1.09-0.95,3.13,0.44,4.3c2.11,1.76,5.11,0.97,6.82-0.96c2.9-3.4,1.63-8.31-1.4-11.11
		c-5.51-4.66-13.66-2.47-17.8,2.59c-7.45,8.54-3.94,21.41,3.96,28.3c13.78,11.65,34.32,6.21,45.11-6.6
		c18.36-21.73,9.72-54.08-10.54-71.24c-34.22-28.86-85.38-15.32-112.29,16.84c-45.27,53.9-23.97,133.98,26.58,176.16
		c84.54,70.38,209.65,36.88,275.19-42.2c109.24-131.61,57.16-326.13-66.28-428.01C543.49,98.45,242.52,179.68,84.98,371.32
		C49.73,414.2,21.58,459.82,0,507.24z">
		 <animateTransform attributeType="xml" attributeName="transform" type="rotate" from="0 600 600" to="360 600 600" dur="10.5s" additive="sum" repeatCount="indefinite" />
		</path>
	<path class="st1" d="M0,75.43v197.53C101.71,164.67,236.49,89.86,397.53,74.13C644.44,50.01,914.69,205.39,939.9,469.19
		c15.25,159.32-85.47,333.69-255.78,349.51c-102.26,9.58-214.41-55.2-224.42-164.75c-5.92-65.57,35.65-137.25,105.76-143.36
		c41.77-3.71,87.52,22.89,91.31,67.5c2.19,26.46-14.57,55.44-42.91,57.82c-16.7,1.44-35.06-9.25-36.57-27.23
		c-0.72-10.46,5.9-22.04,17.21-22.81c6.51-0.65,13.82,3.56,14.42,10.75c0.16,4.13-2.42,8.5-6.87,8.85c-2.57,0.15-5.26-1.4-5.5-4.14
		c-0.16-1.82,1.19-3.36,2.73-3.35c0.96,0,1.95,0.53,2.06,1.56c0.08,0.72-0.43,1.27-1.06,1.33c-0.43,0.04-0.92-0.32-0.88-0.75
		c0.03-0.27,0.17-0.45,0.36-0.5c0.32-0.09,0.51,0.32,0.24,0.38c0.23,0.14,0.39-0.28,0.1-0.44c-0.17-0.1-0.4-0.07-0.61,0.11
		c-0.33,0.27-0.24,0.87,0.09,1.15c0.49,0.4,1.24,0.37,1.7-0.2c0.64-0.81,0.32-1.88-0.36-2.56c-1.09-1.09-3.13-0.95-4.3,0.44
		c-1.76,2.11-0.97,5.11,0.96,6.82c3.4,2.9,8.31,1.63,11.11-1.4c4.66-5.51,2.47-13.66-2.59-17.8c-8.54-7.45-21.41-3.94-28.3,3.96
		c-11.65,13.78-6.21,34.32,6.6,45.11c21.73,18.36,54.08,9.72,71.24-10.54c28.86-34.22,15.32-85.38-16.84-112.29
		c-53.9-45.27-133.98-23.97-176.16,26.58c-70.38,84.54-36.88,209.65,42.2,275.19c131.61,109.24,326.13,57.16,428.01-66.28
		c168.7-204.36,87.47-505.33-104.17-662.87C785.8,49.73,740.18,21.58,692.76,0H146.33C95.45,20.23,46.31,45.59,0,75.43z">
		 <animateTransform attributeType="xml" attributeName="transform" type="rotate" from="0 600 600" to="360 600 600" dur="10.5s" additive="sum" repeatCount="indefinite" />
		</path>
	<path class="st1" d="M452.15,932.85c204.36,168.7,505.33,87.47,662.87-104.17c35.25-42.88,63.4-88.5,84.98-135.92V146.33
		C1179.77,95.45,1154.41,46.31,1124.57,0H927.04c108.29,101.71,183.1,236.49,198.83,397.53
		c24.12,246.91-131.26,517.16-395.06,542.37c-159.32,15.25-333.69-85.47-349.51-255.78c-9.58-102.26,55.2-214.41,164.75-224.42
		c65.57-5.92,137.25,35.65,143.36,105.76c3.71,41.77-22.89,87.52-67.5,91.31c-26.46,2.19-55.44-14.57-57.82-42.91
		c-1.44-16.7,9.25-35.06,27.23-36.57c10.46-0.72,22.04,5.9,22.81,17.21c0.65,6.51-3.56,13.82-10.75,14.42
		c-4.13,0.16-8.5-2.42-8.85-6.87c-0.15-2.57,1.4-5.26,4.14-5.5c1.82-0.16,3.36,1.19,3.35,2.73c0,0.96-0.53,1.95-1.56,2.06
		c-0.72,0.08-1.27-0.43-1.33-1.06c-0.04-0.43,0.32-0.92,0.75-0.88c0.27,0.03,0.45,0.17,0.5,0.36c0.09,0.32-0.32,0.51-0.38,0.24
		c-0.14,0.23,0.28,0.39,0.44,0.1c0.1-0.17,0.07-0.4-0.11-0.61c-0.27-0.33-0.87-0.24-1.15,0.09c-0.4,0.49-0.37,1.24,0.2,1.7
		c0.81,0.64,1.88,0.32,2.56-0.36c1.09-1.09,0.95-3.13-0.44-4.3c-2.11-1.76-5.11-0.97-6.82,0.96c-2.9,3.4-1.63,8.31,1.4,11.11
		c5.51,4.66,13.66,2.47,17.8-2.59c7.45-8.54,3.94-21.41-3.96-28.3c-13.78-11.65-34.32-6.21-45.11,6.6
		c-18.36,21.73-9.72,54.08,10.54,71.24c34.22,28.86,85.38,15.32,112.29-16.84c45.27-53.9,23.97-133.98-26.58-176.16
		c-84.54-70.38-209.65-36.88-275.19,42.2C276.63,636.45,328.71,830.97,452.15,932.85z">
		 <animateTransform attributeType="xml" attributeName="transform" type="rotate" from="0 600 600" to="360 600 600" dur="10.5s" additive="sum" repeatCount="indefinite" />
		</path>
	<path class="st1" d="M371.32,1115.02c42.88,35.25,88.5,63.4,135.92,84.98h546.43c50.88-20.23,100.02-45.59,146.33-75.43V927.04
		c-101.71,108.29-236.49,183.1-397.53,198.83c-246.91,24.12-517.16-131.26-542.37-395.06c-15.25-159.32,85.47-333.69,255.78-349.51
		c102.26-9.58,214.41,55.2,224.42,164.75c5.92,65.57-35.65,137.25-105.76,143.36c-41.77,3.71-87.52-22.89-91.31-67.5
		c-2.19-26.46,14.57-55.44,42.91-57.82c16.7-1.44,35.06,9.25,36.57,27.23c0.72,10.46-5.9,22.04-17.21,22.81
		c-6.51,0.65-13.82-3.56-14.42-10.75c-0.16-4.13,2.42-8.5,6.87-8.85c2.57-0.15,5.26,1.4,5.5,4.14c0.16,1.82-1.19,3.36-2.73,3.35
		c-0.96,0-1.95-0.53-2.06-1.56c-0.08-0.72,0.43-1.27,1.06-1.33c0.43-0.04,0.92,0.32,0.88,0.75c-0.03,0.27-0.17,0.45-0.36,0.5
		c-0.32,0.09-0.51-0.32-0.24-0.38c-0.23-0.14-0.39,0.28-0.1,0.44c0.17,0.1,0.4,0.07,0.61-0.11c0.33-0.27,0.24-0.87-0.09-1.15
		c-0.49-0.4-1.24-0.37-1.7,0.2c-0.64,0.81-0.32,1.88,0.36,2.56c1.09,1.09,3.13,0.95,4.3-0.44c1.76-2.11,0.97-5.11-0.96-6.82
		c-3.4-2.9-8.31-1.63-11.11,1.4c-4.66,5.51-2.47,13.66,2.59,17.8c8.54,7.45,21.41,3.94,28.3-3.96c11.65-13.78,6.21-34.32-6.6-45.11
		c-21.73-18.36-54.08-9.72-71.24,10.54c-28.86,34.22-15.32,85.38,16.84,112.29c53.9,45.27,133.98,23.97,176.16-26.58
		c70.38-84.54,36.88-209.65-42.2-275.19c-131.61-109.24-326.13-57.16-428.01,66.28C98.45,656.51,179.68,957.48,371.32,1115.02z">
		 <animateTransform attributeType="xml" attributeName="transform" type="rotate" from="0 600 600" to="360 600 600" dur="10.5s" additive="sum" repeatCount="indefinite" />
		</path>
</g>
 </svg>
