<svg id="Layer_1" data-name="Layer 1" xmlns="http://www.w3.org/2000/svg" viewBox="0 0 111 39"><defs><style>.cls-1{fill:#fff;}</style></defs><title>logo</title><path class="cls-1" d="M19.57,38.38A0.82,0.82,0,0,1,18.94,38L12.89,23.19H10.2L7,38.16c-0.05.21,0,.21-0.32,0.21h-6A0.73,0.73,0,0,1,.1,37.74L4.57,16.48c0-.21-0.05-0.21.26-0.21l5.37-.16C9,13.28,7.78,10.29,6.57,7.47L7.73,1.29c0.05-.21,0-0.21.32-0.21H20.57s12.21,0.21,9.9,11.4c-1.37,6.39-5.79,8.85-9.68,10l5.9,15.45c0.16,0.32.32,0.48-.05,0.48H19.57Zm-2-22.17c2-.05,5.26-1.12,5.95-4.48C24.36,7.79,20.31,8,19.1,8H14.31Z" transform="translate(-0.09 0.04)"/><path class="cls-1" d="M39.94,1.29c0.05-.21,0-0.21.32-0.21H46.2a0.73,0.73,0,0,1,.63.64L39.2,38.16c-0.05.21,0,.21-0.32,0.21H32.94a0.73,0.73,0,0,1-.63-0.64Z" transform="translate(-0.09 0.04)"/><path class="cls-1" d="M82.26,16.79a0.79,0.79,0,0,1,.68.64L78.57,38.27c-0.05.21,0,.21-0.32,0.21H73a0.73,0.73,0,0,1-.63-0.59L72.94,35A15.28,15.28,0,0,1,62.68,39c-10.21,0-16.74-7.19-14.16-19.61C50.83,8.43,60.47.54,70.41,0.54c5.42,0,9.63,2.18,12,5.7,0.37,0,.68.37,0.53,0.53L77.78,11a0.5,0.5,0,0,1-.63-0.43A9.38,9.38,0,0,0,70,7.42c-6.58,0-12.95,4.8-14.63,12.68C53.62,28.57,57.78,32,63.83,32A15.13,15.13,0,0,0,73.68,28l1.16-5h-8.9a0.73,0.73,0,0,1-.63-0.64L66.41,17c0.05-.21,0-0.21.32-0.21H82.26Z" transform="translate(-0.09 0.04)"/><path class="cls-1" d="M88.89,38.27c-0.11.16-.16,0.11-0.37,0.11H82a0.69,0.69,0,0,1-.68-0.8L103.62,0.12c0.21-.37.84,0,0.84,0.37L111,37.95c0.11,0.32.21,0.43-.16,0.43h-6.53c-0.16,0-.68-0.27-0.58-0.43l-0.63-3.78h-12Zm12-21.58L94.68,27.88h7.42Z" transform="translate(-0.09 0.04)"/></svg>